<svg xmlns="http://www.w3.org/2000/svg" width="512" height="512" viewBox="0 0 512 512">
  <defs>
    <linearGradient id="bg" x1="0" y1="0" x2="1" y2="1">
      <stop offset="0%" stop-color="#ff7a45" />
      <stop offset="100%" stop-color="#ffb400" />
    </linearGradient>
    <linearGradient id="paper" x1="0" y1="0" x2="1" y2="1">
      <stop offset="0%" stop-color="#fff8ee" />
      <stop offset="100%" stop-color="#fff1d8" />
    </linearGradient>
  </defs>
  <rect width="512" height="512" rx="116" fill="url(#bg)" />
  <circle cx="392" cy="128" r="48" fill="#2ec4b6" opacity="0.26" />
  <circle cx="120" cy="402" r="38" fill="#35a7ff" opacity="0.2" />
  <g transform="translate(92 82)">
    <rect x="0" y="0" width="272" height="344" rx="58" fill="url(#paper)" stroke="#2f2533" stroke-width="20" />
    <rect x="54" y="74" width="114" height="30" rx="15" fill="#2f2533" />
    <rect x="54" y="146" width="168" height="30" rx="15" fill="#2f2533" opacity="0.9" />
    <rect x="54" y="218" width="82" height="30" rx="15" fill="#2f2533" opacity="0.9" />
    <rect x="160" y="218" width="62" height="30" rx="15" fill="#ff6b00" />
    <rect x="54" y="290" width="168" height="30" rx="15" fill="#2f2533" opacity="0.16" />
  </g>
  <g transform="translate(338 286)">
    <circle cx="0" cy="0" r="82" fill="#2ec4b6" stroke="#2f2533" stroke-width="20" />
    <path d="M0-36 12-10 40-7 19 13 26 40 0 23-26 40-19 13-40-7-12-10Z" fill="#fff8ee" />
  </g>
</svg>
