<svg xmlns="http://www.w3.org/2000/svg" width="256" height="256" viewBox="0 0 256 256" role="img" aria-labelledby="title desc">
  <title id="title">SpelTel logo</title>
  <desc id="desc">Een speelse scorekaart met sterbadge.</desc>
  <defs>
    <linearGradient id="bg" x1="0" y1="0" x2="1" y2="1">
      <stop offset="0%" stop-color="#ff7a45" />
      <stop offset="100%" stop-color="#ffb400" />
    </linearGradient>
    <linearGradient id="paper" x1="0" y1="0" x2="1" y2="1">
      <stop offset="0%" stop-color="#fff8ee" />
      <stop offset="100%" stop-color="#fff1d8" />
    </linearGradient>
  </defs>
  <rect width="256" height="256" rx="64" fill="url(#bg)" />
  <circle cx="195" cy="63" r="27" fill="#2ec4b6" opacity="0.28" />
  <circle cx="64" cy="202" r="22" fill="#35a7ff" opacity="0.22" />
  <g transform="translate(48 42)">
    <rect x="0" y="0" width="136" height="172" rx="30" fill="url(#paper)" stroke="#2f2533" stroke-width="10" />
    <rect x="26" y="38" width="56" height="16" rx="8" fill="#2f2533" />
    <rect x="26" y="74" width="84" height="16" rx="8" fill="#2f2533" opacity="0.9" />
    <rect x="26" y="110" width="40" height="16" rx="8" fill="#2f2533" opacity="0.9" />
    <rect x="80" y="110" width="30" height="16" rx="8" fill="#ff6b00" />
    <rect x="26" y="146" width="84" height="16" rx="8" fill="#2f2533" opacity="0.16" />
  </g>
  <g transform="translate(156 122)">
    <circle cx="0" cy="0" r="42" fill="#2ec4b6" stroke="#2f2533" stroke-width="10" />
    <path d="M0-19 6-6 20-4 10 6 13 20 0 12-13 20-10 6-20-4-6-6Z" fill="#fff8ee" />
  </g>
</svg>
